# xmcd
#
# Track frame offsets:
#	150
#	14948
#	28216
#	44463
#	59874
#	74305
#	89087
#	103948
#	119814
#	134352
#	148820
#	159994
#	172445
#	186296
#
# Disc length: 2672 seconds
#
# Revision: 1
# Processed by: cddbd v1.4PL0 Copyright (c) Steve Scherf et al.
# Submitted via: EasyCDDAExtractor 5.0.6
#
DISCID=ef0a6e0e
DTITLE=As meninas - Tá ficando sério
DYEAR=2002
DGENRE=Axé
TTITLE0=Tá ficando sério
TTITLE1=Num pé só
TTITLE2=Pout-pourri - Samba da nega maluca- Cadeirudo- Samba lelé
TTITLE3=S´imbora nenem - Olha a lua alah
TTITLE4=Largadinho
TTITLE5=Xibom bombom
TTITLE6=Que amor é esse
TTITLE7=Pout-pourri - Clube das meninas-Pescaria-Papel com endereço
TTITLE8=Tá faltando homem
TTITLE9=Batuque baianão
TTITLE10=O que é o que é
TTITLE11=Xucrute cru
TTITLE12=Um abrigo
TTITLE13=Meu e seu
EXTD=
EXTT0=
EXTT1=
EXTT2=
EXTT3=
EXTT4=
EXTT5=
EXTT6=
EXTT7=
EXTT8=
EXTT9=
EXTT10=
EXTT11=
EXTT12=
EXTT13=
PLAYORDER=
